<svg width="229" height="238" viewBox="0 0 229 238" fill="none" xmlns="http://www.w3.org/2000/svg">
    <path fill-rule="evenodd" clip-rule="evenodd" d="M119.656 45.9722L56.8462 236.672H154.806L119.656 45.9722Z" fill="#F2F3F5"/>
    <path d="M128.087 183.058L131.587 217.558L129.597 217.76L126.097 183.26L128.087 183.058Z" fill="white"/>
    <path d="M217.473 70.7871C221.204 73.5722 223.975 76.3683 225.785 79.1756C227.692 82.1318 228.497 85.0377 228.2 87.8931C227.937 90.3476 226.867 92.6661 224.989 94.8486C223.201 96.9287 220.703 98.8546 217.497 100.626C214.383 102.346 210.648 103.896 206.292 105.276C201.994 106.636 197.17 107.805 191.819 108.784C186.477 109.76 180.713 110.528 174.527 111.088C168.288 111.652 161.738 111.992 154.876 112.109C147.892 112.228 140.71 112.113 133.329 111.765C125.759 111.407 118.101 110.81 110.353 109.972C102.618 109.132 95.018 108.075 87.5538 106.802C80.2783 105.56 73.2443 104.132 66.4518 102.517C59.78 100.931 53.4584 99.1925 47.4872 97.3021C41.5675 95.428 36.1043 93.4401 31.0977 91.3383C26.0821 89.2328 21.6219 87.054 17.7172 84.8017C13.7587 82.5184 10.4441 80.2016 7.77323 77.8512C5.02314 75.4311 2.99905 73.0126 1.70098 70.5958C0.338875 68.0597 -0.205175 65.5652 0.0688349 63.1123C0.277635 61.1827 0.993515 59.332 2.21646 57.5603C3.39073 55.8591 5.02164 54.2491 7.10919 52.7303C11.1429 49.7957 16.7474 47.2743 23.9228 45.166L24.3456 46.6051C17.3365 48.6646 11.8852 51.1106 7.99165 53.9433C6.04194 55.3618 4.52837 56.8515 3.45094 58.4124C2.37193 59.9756 1.74146 61.5977 1.55955 63.2788C1.32013 65.4221 1.80777 67.6245 3.02244 69.886C4.23532 72.1443 6.14925 74.424 8.7642 76.7252C11.3603 79.0098 14.5944 81.2688 18.4666 83.5023C22.3168 85.7232 26.7207 87.8742 31.6783 89.9553C36.643 92.0394 42.0635 94.0117 47.9399 95.872C53.8763 97.7514 60.1626 99.4799 66.7988 101.058C73.56 102.665 80.5624 104.087 87.8061 105.323C95.2404 106.591 102.81 107.644 110.515 108.48C118.231 109.315 125.86 109.911 133.4 110.267C140.748 110.614 147.899 110.728 154.851 110.61C161.676 110.493 168.19 110.154 174.392 109.594C180.533 109.038 186.252 108.276 191.549 107.308C196.839 106.34 201.602 105.186 205.839 103.845C210.101 102.496 213.746 100.985 216.772 99.3132C219.821 97.6286 222.181 95.8144 223.852 93.8706C225.526 91.924 226.478 89.8798 226.708 87.738C226.969 85.2324 226.241 82.6493 224.524 79.9887C222.812 77.3328 220.162 74.6663 216.575 71.9891C213.016 69.3318 208.634 66.7387 203.428 64.2098C198.229 61.6837 192.353 59.292 185.8 57.0347L186.288 55.6165C192.898 57.8935 198.83 60.3082 204.084 62.8606C209.374 65.4309 213.837 68.073 217.473 70.7871Z" fill="#1D2129"/>
    <path fill-rule="evenodd" clip-rule="evenodd" d="M16.78 61.1666C15.2649 75.1146 57.7896 91.1709 111.772 97.0351C165.754 102.899 210.735 96.3485 212.25 82.4006C213.765 68.4526 171.242 52.3863 117.259 46.5222C63.2768 40.6581 18.2952 47.2187 16.78 61.1666Z" fill="#6AA1FF"/>
    <path fill-rule="evenodd" clip-rule="evenodd" d="M186.908 69.5493C186.828 70.7693 186.738 72.0693 186.648 73.2893C168.898 76.8593 144.108 77.6393 116.958 74.6793C113.568 74.3293 110.268 73.8993 106.958 73.4593C207.708 87.9093 205.788 72.9393 186.908 69.5493Z" fill="#3BD9B9"/>
    <path d="M173.78 29.5349C171.058 25.7963 167.972 22.3656 164.522 19.2427C161.042 16.091 157.271 13.3265 153.212 10.9493C149.072 8.52463 144.721 6.55573 140.158 5.0426C135.462 3.48528 130.632 2.44079 125.666 1.90912C120.76 1.37919 115.876 1.36414 111.013 1.86398C106.277 2.35084 101.647 3.31669 97.1258 4.76154C92.6816 6.18171 88.4345 8.03458 84.3844 10.3202C80.3615 12.5904 76.6233 15.2363 73.1701 18.2578C70.2097 20.8308 67.5116 23.6338 65.0759 26.6669C62.6199 29.7252 60.4689 32.9696 58.623 36.4C56.7479 39.8846 55.2156 43.5095 54.026 47.2748C52.8097 51.1244 51.9681 55.0693 51.5013 59.1095L50.7563 59.0234L51.0491 58.3329C58.3211 61.417 66.6753 64.1818 76.1119 66.6274C85.8593 69.1535 96.1758 71.1846 107.061 72.7208C111.264 73.2794 114.591 73.6849 117.043 73.9373C123.72 74.6654 130.32 75.1751 136.842 75.4663C143.178 75.7491 149.335 75.8216 155.314 75.6836C161.166 75.5485 166.734 75.2148 172.016 74.6825C177.234 74.1566 182.062 73.4485 186.499 72.5581L186.646 73.2934L185.904 73.1839C186.072 72.0455 186.156 70.8353 186.156 69.5534V69.5401L186.157 69.5267C186.287 65.8818 186.107 62.2628 185.617 58.6696C185.137 55.1395 184.362 51.674 183.294 48.2731C182.24 44.913 180.911 41.6573 179.309 38.5058C177.717 35.3726 175.874 32.3832 173.782 29.5377L173.78 29.5349ZM174.99 28.6492C177.131 31.5608 179.016 34.6197 180.646 37.826C182.286 41.0517 183.646 44.3842 184.725 47.8237C185.818 51.3054 186.611 54.8532 187.103 58.4672C187.605 62.1453 187.789 65.8496 187.656 69.5801L186.906 69.5534H187.656C187.656 70.9088 187.567 72.1919 187.388 73.4029L187.311 73.9249L186.794 74.0287C182.309 74.9287 177.433 75.6441 172.166 76.1749C166.846 76.7111 161.24 77.0472 155.348 77.1832C149.336 77.3219 143.145 77.2491 136.775 76.9648C130.221 76.6722 123.592 76.1604 116.889 75.4295C114.423 75.1755 111.077 74.7676 106.851 74.206C95.9098 72.662 85.538 70.6198 75.7356 68.0794C66.2275 65.6152 57.8034 62.8268 50.4634 59.7139L49.9468 59.4948L50.0112 58.9373C50.489 54.802 51.3505 50.7638 52.5956 46.8229C53.8136 42.9679 55.3824 39.2567 57.3021 35.6893C59.1915 32.178 61.3929 28.8575 63.9063 25.7277C66.3981 22.6248 69.1568 19.7585 72.1824 17.129C75.713 14.0397 79.5346 11.3346 83.6472 9.0138C87.7867 6.67781 92.1274 4.78412 96.6692 3.33272C101.289 1.85627 106.019 0.869322 110.859 0.371842C115.827 -0.138768 120.816 -0.123508 125.826 0.417642C130.898 0.960722 135.833 2.02779 140.63 3.61885C145.293 5.1651 149.74 7.17713 153.97 9.65495C158.118 12.0844 161.971 14.9096 165.529 18.1307C169.055 21.3228 172.209 24.8299 174.992 28.6519L174.99 28.6492Z" fill="#1D2129"/>
    <path d="M103.87 12.5991C107.287 11.509 110.789 10.7785 114.375 10.4076C118.054 10.0271 121.756 10.0322 125.48 10.4227L125.324 11.9145C121.703 11.5348 118.105 11.5299 114.529 11.8996C111.045 12.2599 107.644 12.9694 104.326 14.0281C101.065 15.0688 97.9491 16.4259 94.9778 18.0996C92.0277 19.7613 89.2836 21.6993 86.7454 23.9138L85.7593 22.7835C88.3747 20.5016 91.2022 18.5047 94.2416 16.7927C97.3021 15.0688 100.512 13.6709 103.87 12.5991Z" fill="#1D2129"/>
    <path d="M192.218 237.426H13.1724V235.926H192.218V237.426Z" fill="#1D2129"/>
    <path d="M64.0322 208.833L68.1842 223.951L66.7382 224.349L62.5872 209.234L35.2334 216.812L51.6112 168.748L52.3982 166.438L63.6352 207.386L75.4402 204.107L75.8422 205.553L64.0322 208.833ZM62.1902 207.787L52.2442 171.542L37.5689 214.608L62.1902 207.787Z" fill="#1D2129"/>
    <path d="M176.227 188.175L173.897 200.447L172.423 200.167L174.753 187.893L152.058 183.558L181.25 154.367L182.971 152.646L176.507 186.701L186.091 188.53L185.809 190.004L176.227 188.175ZM175.033 186.419L180.589 157.148L155.122 182.616L175.033 186.419Z" fill="#1D2129"/>
    <path d="M120.344 158.18L122.721 146.186C123.002 144.769 122.995 143.358 122.701 141.953C122.416 140.596 121.886 139.337 121.108 138.177C120.33 137.017 119.366 136.046 118.217 135.266C117.028 134.458 115.724 133.913 114.306 133.63C112.888 133.351 111.475 133.358 110.069 133.652C108.71 133.936 107.45 134.468 106.29 135.246C105.13 136.024 104.161 136.987 103.381 138.135C102.575 139.325 102.031 140.628 101.751 142.045L99.3715 154.03C99.0917 155.448 99.0989 156.86 99.3931 158.268C99.6777 159.626 100.209 160.886 100.988 162.047C101.765 163.208 102.729 164.178 103.879 164.959C105.068 165.766 106.371 166.312 107.79 166.595C109.226 166.87 110.649 166.86 112.059 166.564C113.42 166.279 114.678 165.748 115.833 164.972C116.987 164.197 117.95 163.236 118.723 162.088C119.523 160.902 120.064 159.6 120.344 158.18ZM121.816 158.471C121.496 160.089 120.88 161.574 119.968 162.926C119.085 164.236 117.986 165.333 116.67 166.217C115.354 167.102 113.919 167.707 112.367 168.032C110.761 168.369 109.137 168.38 107.496 168.066C105.879 167.744 104.392 167.122 103.035 166.2C101.726 165.31 100.628 164.204 99.7414 162.883C98.8548 161.56 98.2495 160.124 97.9256 158.575C97.5892 156.969 97.5806 155.357 97.8998 153.738L100.279 141.754C100.6 140.137 101.22 138.65 102.14 137.294C103.028 135.984 104.133 134.886 105.455 134C106.776 133.114 108.212 132.508 109.762 132.184C111.367 131.848 112.98 131.84 114.599 132.159C116.216 132.482 117.703 133.104 119.06 134.025C120.369 134.915 121.467 136.02 122.353 137.341C123.24 138.663 123.845 140.098 124.169 141.646C124.505 143.251 124.513 144.861 124.193 146.477L121.816 158.471Z" fill="#1D2129"/>
</svg>
