<svg width="16" height="16" viewBox="0 0 16 16" fill="none" xmlns="http://www.w3.org/2000/svg">
    <path fill-rule="evenodd" clip-rule="evenodd" d="M0.666504 3.00033C0.666504 2.26395 1.26346 1.66699 1.99984 1.66699H6.33317C6.53102 1.66699 6.71866 1.75487 6.84532 1.90687L8.31209 3.66699H12.4998C13.2362 3.66699 13.8332 4.26394 13.8332 5.00033V6.33366H14.6665C14.8662 6.33366 15.0554 6.42321 15.1821 6.57767C15.3087 6.73212 15.3594 6.93522 15.3202 7.13107L13.9869 13.7977C13.9246 14.1094 13.651 14.3337 13.3332 14.3337H1.34173C1.31778 14.3339 1.29362 14.3329 1.26932 14.3306C1.25636 14.3294 1.24348 14.3277 1.23068 14.3257C0.90707 14.2755 0.666504 13.9966 0.666504 13.667V3.00033ZM2.93734 6.33366C2.62923 6.33366 2.36126 6.5448 2.28918 6.84436L1.99984 8.04681V3.00033H6.02092L7.48769 4.76045C7.61435 4.91244 7.80198 5.00033 7.99984 5.00033H12.4998V6.33366H2.93734Z" fill="#6AA1FF"/>
</svg>
